<?xml version="1.0" encoding="utf-8"?>
<!-- Generator: Adobe Illustrator 23.0.1, SVG Export Plug-In . SVG Version: 6.00 Build 0)  -->
<svg version="1.1" id="be_quiet_x21__x5F_Logo_x5F_pos_x5F_RGB"
	 xmlns="http://www.w3.org/2000/svg" xmlns:xlink="http://www.w3.org/1999/xlink" x="0px" y="0px" viewBox="0 0 154.46 37.63"
	 style="enable-background:new 0 0 154.46 37.63;" xml:space="preserve">
<style type="text/css">
	.Grün_x0020_bogenförmig{fill:url(#SVGID_1_);stroke:#FFFFFF;stroke-width:0.25;stroke-miterlimit:1;}
	.st0{fill:#EE7F00;}
</style>
<linearGradient id="SVGID_1_" gradientUnits="userSpaceOnUse" x1="-221" y1="439.8887" x2="-220.2929" y2="439.1816">
	<stop  offset="0" style="stop-color:#259E2E"/>
	<stop  offset="0.9831" style="stop-color:#1C381D"/>
</linearGradient>

<path class="st0" d="M48.55,19.19c0,2.5,0.68,4.57,2.05,6.29c1.8,2.25,4.13,2.89,7.54,2.89h4.27v6.83h5V9.54h-9.63
	C51.92,9.54,48.55,13.15,48.55,19.19L48.55,19.19L48.55,19.19z M62.41,13.61v10.73h-3.05c-3.88,0-5.57-1.39-5.57-5.5
	c0-3.93,1.47-5.22,5.17-5.22H62.41L62.41,13.61L62.41,13.61z M83.9,24.23h-4.03c-2.62,0-3.27-0.64-3.27-3.15V9.54h-4.99v11.94
	c0,4.93,2.44,6.9,7.87,6.9h9.41V9.54H83.9V24.23L83.9,24.23L83.9,24.23z M93.38,7.39h5.24V2.71h-5.24V7.39L93.38,7.39L93.38,7.39z
	 M93.38,28.38h5.24V9.54h-5.24V28.38L93.38,28.38L93.38,28.38z M101.85,18.97c0,6.19,3.23,9.4,9.52,9.4h7.29v-3.93h-6.65
	c-3.23,0-4.53-0.39-4.63-3.5h11.28v-3.93h-11.28c0.11-3,1.47-3.54,4.67-3.54h6.61V9.54h-7.29C105.09,9.54,101.85,12.82,101.85,18.97
	L101.85,18.97L101.85,18.97z M128.51,2.71h-4.99v6.83H120v3.75h3.52v9.19c0,3.86,2.08,5.9,5.71,5.9h4.56v-3.75h-2.05
	c-2.55,0-3.23-1.11-3.23-3.72v-7.61h5.28V9.54h-5.28V2.71L128.51,2.71L128.51,2.71z M137.45,2.71V21.8h5.43V2.71H137.45L137.45,2.71
	L137.45,2.71z M137.49,28.38h5.39v-4.61h-5.39V28.38L137.49,28.38L137.49,28.38z"/>

</svg>
